<?xml version="1.0" standalone="no"?>
<!DOCTYPE svg PUBLIC "-//W3C//DTD SVG 20010904//EN"
 "http://www.w3.org/TR/2001/REC-SVG-20010904/DTD/svg10.dtd">
<svg version="1.0" xmlns="http://www.w3.org/2000/svg"
 width="287.000000pt" height="287.000000pt" viewBox="0 0 287.000000 287.000000"
 preserveAspectRatio="xMidYMid meet">

<g transform="translate(0.000000,287.000000) scale(0.100000,-0.100000)"
fill="#000000" stroke="none">
<path d="M1225 2833 c-125 -14 -289 -56 -387 -99 -224 -96 -321 -160 -464
-303 -136 -135 -210 -245 -294 -436 -12 -27 -26 -58 -31 -68 -5 -10 -7 -22 -4
-27 3 -5 195 -9 445 -9 l439 0 28 30 c43 46 182 136 248 161 50 18 81 22 190
22 110 0 140 -3 198 -23 200 -68 370 -247 433 -456 25 -85 25 -297 0 -380 -67
-219 -246 -407 -441 -463 -218 -62 -410 -19 -598 134 l-27 23 -445 0 c-305 0
-446 -3 -451 -10 -3 -6 -2 -21 4 -32 6 -12 27 -56 46 -97 74 -156 131 -236
260 -366 61 -61 143 -131 181 -156 82 -53 213 -128 225 -128 4 0 38 -13 75
-30 68 -30 121 -46 255 -75 99 -22 394 -31 486 -16 185 31 249 47 364 94 204
83 325 163 480 316 177 175 314 428 364 671 56 273 43 551 -35 785 -107 318
-344 609 -608 748 -195 103 -361 158 -558 187 -66 9 -308 12 -378 3z"/>
<path d="M1300 1840 l0 -130 -650 0 -650 0 0 -290 0 -290 650 0 650 0 0 -130
c0 -71 3 -130 8 -130 4 0 57 43 117 96 61 53 173 150 250 217 214 184 265 230
265 237 0 3 -59 57 -132 120 -320 279 -396 345 -442 386 -27 24 -53 44 -57 44
-5 0 -9 -58 -9 -130z"/>
</g>
</svg>
